<svg width="28" height="28" viewBox="0 0 28 28" fill="none" xmlns="http://www.w3.org/2000/svg">
<path fill-rule="evenodd" clip-rule="evenodd" d="M8.77796 2C6.64646 3.20977 4.71021 4.73498 3.03489 6.52387L3 6.56113L4.4598 7.92824L4.49469 7.89098C6.03215 6.24929 7.80907 4.84959 9.76517 3.73937L8.77796 2ZM18.7653 2C20.8967 3.20977 22.833 4.73498 24.5083 6.52387L24.5432 6.56113L23.0834 7.92824L23.0485 7.89098C21.5111 6.24929 19.7341 4.84959 17.778 3.73937L18.7653 2ZM8.06513 21.9654L6.40332 24.8735L8.13981 25.8658L9.7812 22.9934C10.9945 23.5558 12.3465 23.8696 13.7717 23.8696C15.1969 23.8696 16.5488 23.5558 17.7621 22.9935L19.4034 25.8658L21.1399 24.8735L19.4782 21.9655C21.7819 20.232 23.2717 17.4748 23.2717 14.3696C23.2717 9.12292 19.0184 4.86963 13.7717 4.86963C8.52502 4.86963 4.27173 9.12292 4.27173 14.3696C4.27173 17.4747 5.76144 20.2319 8.06513 21.9654ZM8.27173 14.3696V13.8696H10.2717V14.3696C10.2717 16.3026 11.8387 17.8696 13.7717 17.8696C15.7047 17.8696 17.2717 16.3026 17.2717 14.3696V13.8696H19.2717V14.3696C19.2717 17.4072 16.8093 19.8696 13.7717 19.8696C10.7342 19.8696 8.27173 17.4072 8.27173 14.3696ZM11.2717 12.8696C11.824 12.8696 12.2717 12.4219 12.2717 11.8696C12.2717 11.3173 11.824 10.8696 11.2717 10.8696C10.7194 10.8696 10.2717 11.3173 10.2717 11.8696C10.2717 12.4219 10.7194 12.8696 11.2717 12.8696ZM17.2717 11.8696C17.2717 12.4219 16.824 12.8696 16.2717 12.8696C15.7194 12.8696 15.2717 12.4219 15.2717 11.8696C15.2717 11.3173 15.7194 10.8696 16.2717 10.8696C16.824 10.8696 17.2717 11.3173 17.2717 11.8696ZM21.2717 14.3696C21.2717 18.5118 17.9139 21.8696 13.7717 21.8696C9.62959 21.8696 6.27173 18.5118 6.27173 14.3696C6.27173 10.2275 9.62959 6.86963 13.7717 6.86963C17.9139 6.86963 21.2717 10.2275 21.2717 14.3696Z" fill="black"/>
</svg>
