<svg width="100" height="40" viewBox="0 0 100 40" fill="none" xmlns="http://www.w3.org/2000/svg">
<path d="M97.3182 28.7997C96.9573 29.0665 96.5101 29.2705 95.9767 29.4117C95.4589 29.5372 94.9176 29.5999 94.3527 29.5999C92.8307 29.5999 91.6618 29.2155 90.8459 28.4467C90.03 27.6779 89.6221 26.5482 89.6221 25.0576V13.9489H93.2936V17.032H96.4238V19.8563H93.2936V25.0105C93.2936 25.544 93.427 25.9598 93.6937 26.2579C93.9604 26.5403 94.3449 26.6816 94.847 26.6816C95.4118 26.6816 95.9139 26.5246 96.3532 26.2108L97.3182 28.7997Z" fill="black"/>
<path d="M83.0844 16.7496H86.7559V29.4117H83.0844V16.7496ZM84.9202 14.9845C84.2455 14.9845 83.6963 14.7883 83.2727 14.3961C82.849 14.0038 82.6372 13.5174 82.6372 12.9369C82.6372 12.3563 82.849 11.8699 83.2727 11.4777C83.6963 11.0854 84.2455 10.8893 84.9202 10.8893C85.5948 10.8893 86.144 11.0776 86.5676 11.4541C86.9913 11.8307 87.2031 12.3014 87.2031 12.8663C87.2031 13.4782 86.9913 13.9881 86.5676 14.3961C86.144 14.7883 85.5948 14.9845 84.9202 14.9845Z" fill="black"/>
<path d="M80.1379 16.7496V27.2935C80.1379 29.6156 79.5338 31.3416 78.3257 32.4713C77.1175 33.601 75.3523 34.1658 73.0302 34.1658C71.8063 34.1658 70.6452 34.0168 69.5469 33.7186C68.4486 33.4205 67.5386 32.989 66.8168 32.4242L68.276 29.7882C68.8095 30.2276 69.4842 30.5727 70.3001 30.8238C71.116 31.0905 71.9319 31.2239 72.7477 31.2239C74.0187 31.2239 74.9522 30.9336 75.5485 30.3531C76.1604 29.7882 76.4664 28.9253 76.4664 27.7642V27.2229C75.5092 28.2741 74.1756 28.7997 72.4653 28.7997C71.3042 28.7997 70.2373 28.5487 69.2645 28.0466C68.3074 27.5288 67.5464 26.8071 66.9816 25.8813C66.4167 24.9556 66.1343 23.8887 66.1343 22.6805C66.1343 21.4723 66.4167 20.4054 66.9816 19.4797C67.5464 18.5539 68.3074 17.84 69.2645 17.3379C70.2373 16.8202 71.3042 16.5613 72.4653 16.5613C74.3011 16.5613 75.6975 17.1654 76.6546 18.3735V16.7496H80.1379ZM73.1949 25.7872C74.1677 25.7872 74.9601 25.5048 75.572 24.9399C76.1996 24.3594 76.5134 23.6062 76.5134 22.6805C76.5134 21.7548 76.1996 21.0095 75.572 20.4446C74.9601 19.8641 74.1677 19.5738 73.1949 19.5738C72.2221 19.5738 71.4219 19.8641 70.7943 20.4446C70.1667 21.0095 69.8529 21.7548 69.8529 22.6805C69.8529 23.6062 70.1667 24.3594 70.7943 24.9399C71.4219 25.5048 72.2221 25.7872 73.1949 25.7872Z" fill="black"/>
<path d="M64.145 16.7496V29.4117H60.6617V27.9055C60.1753 28.4546 59.5948 28.8783 58.9201 29.1764C58.2454 29.4588 57.5158 29.6 56.7313 29.6C55.0681 29.6 53.7501 29.1215 52.7773 28.1643C51.8045 27.2072 51.3181 25.7873 51.3181 23.9044V16.7496H54.9897V23.3631C54.9897 25.4028 55.8448 26.4227 57.555 26.4227C58.4337 26.4227 59.1397 26.1403 59.6732 25.5754C60.2067 24.9949 60.4734 24.1398 60.4734 23.0101V16.7496H64.145Z" fill="black"/>
<path d="M46.772 17.0321H50.0199V19.8563H46.8661V29.4117H43.1946V16.4672C43.1946 15.0237 43.6182 13.8783 44.4655 13.031C45.3285 12.1838 46.5366 11.7601 48.09 11.7601C48.6391 11.7601 49.1569 11.8229 49.6433 11.9484C50.1454 12.0582 50.5612 12.223 50.8907 12.4427L49.9257 15.1022C49.5021 14.8041 49.0078 14.655 48.443 14.655C47.329 14.655 46.772 15.2669 46.772 16.4908V17.0321Z" fill="black"/>
<path fill-rule="evenodd" clip-rule="evenodd" d="M21.5 20.2608L7.06268 14.8162C6.574 14.6321 6.35955 14.0552 6.59721 13.5657L9.383 7.82672C9.84495 6.87486 11.1057 6.70893 11.7265 7.51826L21.5 20.2608ZM21.4999 20.4062L7.13493 25.8244C6.6091 26.0227 6.37781 26.644 6.6337 27.171L9.38521 32.8402C9.84707 33.792 11.1075 33.958 11.7283 33.1487L21.4999 20.4062Z" fill="black"/>
<path fill-rule="evenodd" clip-rule="evenodd" d="M36.5 20.2972L22.0625 14.8378C21.5746 14.6531 21.3594 14.0746 21.5971 13.5838L24.3828 7.82899C24.8454 6.87452 26.1061 6.70813 26.7262 7.51969L36.5 20.2972ZM36.5 20.3697L22.0625 25.8291C21.5746 26.0138 21.3594 26.5923 21.5971 27.0831L24.3828 32.8379C24.8454 33.7924 26.1061 33.9588 26.7262 33.1472L36.5 20.3697Z" fill="black"/>
</svg>
