<svg width="28" height="28" viewBox="0 0 28 28" fill="none" xmlns="http://www.w3.org/2000/svg">
<path d="M24.1427 8.57143C23.7998 8.22857 23.2284 8 22.657 8H19.457C19.5713 7.88571 19.5713 7.65714 19.6856 7.42857C19.6856 7.2 19.7999 7.08571 19.7999 6.85714C19.7999 6.05714 19.5713 5.37143 18.9999 4.8C18.3142 4.34286 17.6285 4 16.8285 4C16.3713 4 15.9142 4.11429 15.457 4.34286C14.9999 4.57143 14.6571 4.91429 14.4285 5.25714L13.8571 6.17143L13.1714 5.37143C12.8285 5.02857 12.4856 4.68571 12.1428 4.45714C11.6856 4.11429 11.2285 4 10.7714 4C9.97138 4 9.28567 4.34286 8.82853 4.8C8.2571 5.37143 7.91425 6.05714 7.91425 6.85714C7.91425 7.08571 7.91425 7.31429 8.02853 7.42857C8.02853 7.65714 8.14282 7.77143 8.2571 8H5.05713C4.4857 8 4.02856 8.22857 3.57142 8.57143C3.22857 9.02857 3 9.48571 3 10.0571V17.1429V18.8571V21.9429C3 22.5143 3.22857 22.9714 3.57142 23.4286C3.91428 23.8857 4.4857 24 5.05713 24H22.657C23.2284 24 23.6856 23.7714 24.1427 23.4286C24.5998 23.0857 24.7141 22.5143 24.7141 21.9429V18.8571V17.1429V10.0571C24.7141 9.48571 24.4856 9.02857 24.1427 8.57143ZM16.0285 6.05714C16.257 5.82857 16.4856 5.71429 16.8285 5.71429C17.1713 5.71429 17.3999 5.82857 17.6285 6.05714C17.857 6.28571 17.9713 6.51429 17.9713 6.85714C17.9713 7.2 17.857 7.42857 17.6285 7.65714C17.3999 7.88571 17.1713 8 16.8285 8C16.4856 8 16.257 7.88571 16.0285 7.65714C15.7999 7.42857 15.6856 7.2 15.6856 6.85714C15.6856 6.51429 15.7999 6.28571 16.0285 6.05714ZM9.97138 6.05714C10.1999 5.82857 10.4285 5.71429 10.7714 5.71429C11.1142 5.71429 11.3428 5.82857 11.5714 6.05714C11.7999 6.28571 11.9142 6.51429 11.9142 6.85714C11.9142 7.2 11.7999 7.42857 11.5714 7.65714C11.3428 7.88571 11.1142 8 10.7714 8C10.4285 8 10.1999 7.88571 9.97138 7.65714C9.74281 7.42857 9.62852 7.2 9.62852 6.85714C9.62852 6.51429 9.74281 6.28571 9.97138 6.05714ZM22.9999 19.7714V21.9429C22.9999 22.0571 22.9998 22.0571 22.8856 22.1714C22.7713 22.2857 22.7713 22.2857 22.657 22.2857H5.05713C4.94284 22.2857 4.94284 22.2857 4.82856 22.1714C4.71427 22.0571 4.71427 22.0571 4.71427 21.9429V19.7714V18.8571H22.9999V19.7714ZM4.71427 17.1429V16.8V10.0571C4.71427 9.94286 4.71427 9.94286 4.82856 9.82857C4.94284 9.82857 4.94284 9.71429 5.05713 9.71429H11.2285L8.94281 12.9143L10.3142 13.9429L13.8571 9.14286L17.3999 13.9429L18.7713 12.9143L16.4856 9.71429H22.7713C22.8856 9.71429 22.8856 9.71429 22.9999 9.82857C22.9999 9.94286 22.9999 9.94286 22.9999 10.0571V16.8V17.1429H4.71427Z" fill="black"/>
</svg>
