<svg width="141" height="40" viewBox="0 0 141 40" fill="none" xmlns="http://www.w3.org/2000/svg">
<path fill-rule="evenodd" clip-rule="evenodd" d="M21 20.2606L6.56268 14.8161C6.074 14.632 5.85955 14.0551 6.09721 13.5656L8.883 7.8266C9.34495 6.87474 10.6057 6.7088 11.2265 7.51814L21 20.2606ZM20.9999 20.406L6.63493 25.8242C6.1091 26.0225 5.87781 26.6439 6.1337 27.1709L8.88521 32.8401C9.34707 33.7919 10.6075 33.9579 11.2283 33.1485L20.9999 20.406Z" fill="white"/>
<path fill-rule="evenodd" clip-rule="evenodd" d="M36 20.2971L21.5625 14.8377C21.0746 14.653 20.8594 14.0745 21.0971 13.5837L23.8828 7.82887C24.3454 6.8744 25.6061 6.708 26.2262 7.51957L36 20.2971ZM36 20.3696L21.5625 25.829C21.0746 26.0137 20.8594 26.5922 21.0971 27.083L23.8828 32.8378C24.3454 33.7923 25.6061 33.9587 26.2262 33.1471L36 20.3696Z" fill="white"/>
<path d="M135 15.6976V27.7425H132.316V26.1861C131.85 26.7575 131.271 27.1861 130.579 27.4718C129.902 27.7575 129.151 27.9004 128.324 27.9004C127.151 27.9004 126.098 27.6447 125.166 27.1335C124.248 26.6222 123.527 25.9004 123 24.9681C122.489 24.0358 122.233 22.9531 122.233 21.72C122.233 20.487 122.489 19.4118 123 18.4945C123.527 17.5622 124.248 16.8404 125.166 16.3292C126.098 15.8179 127.151 15.5623 128.324 15.5623C129.105 15.5623 129.82 15.6976 130.466 15.9683C131.128 16.2389 131.699 16.6374 132.181 17.1637V15.6976H135ZM128.639 25.4869C129.677 25.4869 130.534 25.141 131.211 24.4493C131.887 23.7576 132.226 22.8478 132.226 21.72C132.226 20.5922 131.887 19.6825 131.211 18.9908C130.534 18.299 129.677 17.9532 128.639 17.9532C127.602 17.9532 126.745 18.299 126.068 18.9908C125.406 19.6825 125.075 20.5922 125.075 21.72C125.075 22.8478 125.406 23.7576 126.068 24.4493C126.745 25.141 127.602 25.4869 128.639 25.4869Z" fill="white"/>
<path d="M117.719 17.457C118.531 16.1938 119.959 15.5623 122.004 15.5623V18.2464C121.764 18.2013 121.546 18.1787 121.35 18.1787C120.253 18.1787 119.395 18.5021 118.779 19.1487C118.162 19.7802 117.854 20.6975 117.854 21.9005V27.7425H115.035V15.6976H117.719V17.457Z" fill="white"/>
<path d="M106.97 27.9004C105.752 27.9004 104.655 27.6372 103.677 27.1109C102.7 26.5846 101.933 25.8553 101.376 24.923C100.835 23.9756 100.564 22.908 100.564 21.72C100.564 20.5321 100.835 19.472 101.376 18.5396C101.933 17.6073 102.7 16.878 103.677 16.3517C104.655 15.8254 105.752 15.5623 106.97 15.5623C108.203 15.5623 109.309 15.8254 110.286 16.3517C111.264 16.878 112.023 17.6073 112.564 18.5396C113.121 19.472 113.399 20.5321 113.399 21.72C113.399 22.908 113.121 23.9756 112.564 24.923C112.023 25.8553 111.264 26.5846 110.286 27.1109C109.309 27.6372 108.203 27.9004 106.97 27.9004ZM106.97 25.4869C108.008 25.4869 108.865 25.141 109.542 24.4493C110.218 23.7576 110.557 22.8478 110.557 21.72C110.557 20.5922 110.218 19.6825 109.542 18.9908C108.865 18.299 108.008 17.9532 106.97 17.9532C105.933 17.9532 105.076 18.299 104.399 18.9908C103.737 19.6825 103.407 20.5922 103.407 21.72C103.407 22.8478 103.737 23.7576 104.399 24.4493C105.076 25.141 105.933 25.4869 106.97 25.4869Z" fill="white"/>
<path d="M93.8309 15.5623C95.0038 15.5623 96.0489 15.8179 96.9661 16.3292C97.8985 16.8404 98.6278 17.5622 99.1541 18.4945C99.6804 19.4268 99.9435 20.502 99.9435 21.72C99.9435 22.9381 99.6804 24.0207 99.1541 24.9681C98.6278 25.9004 97.8985 26.6222 96.9661 27.1335C96.0489 27.6447 95.0038 27.9004 93.8309 27.9004C92.2068 27.9004 90.9211 27.359 89.9738 26.2763V32.1183H87.1543V15.6976H89.8385V17.2765C90.3046 16.7051 90.876 16.2765 91.5527 15.9908C92.2444 15.7051 93.0038 15.5623 93.8309 15.5623ZM93.5151 25.4869C94.5527 25.4869 95.4023 25.141 96.0639 24.4493C96.7406 23.7576 97.0789 22.8478 97.0789 21.72C97.0789 20.5922 96.7406 19.6825 96.0639 18.9908C95.4023 18.299 94.5527 17.9532 93.5151 17.9532C92.8384 17.9532 92.2294 18.1111 91.688 18.4269C91.1467 18.7276 90.7181 19.1637 90.4024 19.7351C90.0866 20.3065 89.9287 20.9682 89.9287 21.72C89.9287 22.4719 90.0866 23.1335 90.4024 23.705C90.7181 24.2764 91.1467 24.72 91.688 25.0358C92.2294 25.3365 92.8384 25.4869 93.5151 25.4869Z" fill="white"/>
<path d="M79.672 15.5623C81.1907 15.5623 82.3937 16.0059 83.2809 16.8931C84.1681 17.7652 84.6117 19.081 84.6117 20.8404V27.7425H81.7922V21.2012C81.7922 20.1486 81.5591 19.3592 81.093 18.8329C80.6268 18.2915 79.9577 18.0209 79.0855 18.0209C78.1382 18.0209 77.3788 18.3366 76.8074 18.9682C76.2359 19.5847 75.9502 20.4719 75.9502 21.6298V27.7425H73.1307V21.2012C73.1307 20.1486 72.8977 19.3592 72.4315 18.8329C71.9653 18.2915 71.2962 18.0209 70.424 18.0209C69.4616 18.0209 68.6947 18.3291 68.1233 18.9457C67.5669 19.5622 67.2887 20.4569 67.2887 21.6298V27.7425H64.4692V15.6976H67.1534V17.2314C67.6045 16.6901 68.1684 16.2765 68.8451 15.9908C69.5218 15.7051 70.2736 15.5623 71.1007 15.5623C72.0029 15.5623 72.7999 15.7352 73.4916 16.081C74.1984 16.4119 74.7548 16.9081 75.1608 17.5697C75.657 16.9382 76.2961 16.4495 77.078 16.1036C77.86 15.7427 78.7246 15.5623 79.672 15.5623Z" fill="white"/>
<path d="M57.2495 25.5094C58.5578 25.5094 59.648 25.0734 60.5201 24.2012L62.0088 25.938C61.4825 26.5846 60.8058 27.0733 59.9788 27.4041C59.1517 27.735 58.2194 27.9004 57.1818 27.9004C55.8586 27.9004 54.6932 27.6372 53.6857 27.1109C52.6782 26.5846 51.8962 25.8553 51.3398 24.923C50.7985 23.9756 50.5278 22.908 50.5278 21.72C50.5278 20.5471 50.791 19.4945 51.3173 18.5622C51.8586 17.6148 52.5955 16.878 53.5278 16.3517C54.4751 15.8254 55.5428 15.5623 56.7307 15.5623C57.8585 15.5623 58.8811 15.8104 59.7983 16.3066C60.7307 16.7878 61.4675 17.487 62.0088 18.4043C62.5502 19.3065 62.8208 20.3667 62.8208 21.5847L53.5954 23.3892C53.8812 24.0809 54.3398 24.6072 54.9714 24.9681C55.6029 25.329 56.3623 25.5094 57.2495 25.5094ZM56.7307 17.8179C55.6932 17.8179 54.8511 18.1562 54.2045 18.8329C53.5729 19.5096 53.2571 20.4193 53.2571 21.5621V21.5847L60.069 20.2765C59.8735 19.5396 59.475 18.9457 58.8735 18.4945C58.2871 18.0434 57.5728 17.8179 56.7307 17.8179Z" fill="white"/>
<path d="M50.6466 27.0885C50.3157 27.3592 49.9097 27.5622 49.4285 27.6975C48.9624 27.8329 48.4662 27.9005 47.9399 27.9005C46.6166 27.9005 45.594 27.5547 44.8722 26.8629C44.1504 26.1712 43.7896 25.1637 43.7896 23.8404V18.0436H41.5V15.788H43.7896L43.7896 13.0361H46.6091V15.788H49.8346V18.0436H46.6091V23.7728C46.6091 24.3592 46.7519 24.8104 47.0376 25.1261C47.3384 25.4269 47.7519 25.5773 48.2782 25.5773C48.9098 25.5773 49.4361 25.4118 49.8571 25.081L50.6466 27.0885Z" fill="white"/>
</svg>
