<svg width="333" height="220" viewBox="0 0 333 220" fill="none" xmlns="http://www.w3.org/2000/svg">
<path d="M171.184 5.13128C171.184 5.13128 162.434 3.00897 157.139 15.8308C152.726 26.5182 149.595 32.2257 153.177 36.1026C154.459 37.4895 156.288 38.2369 158.173 38.3008L178.341 38.9643C178.341 38.9643 185.745 19.5318 181.244 12.5054C176.743 5.47501 171.184 5.13128 171.184 5.13128Z" fill="black"/>
<path d="M175.361 37.3498L165.661 40.5433V26.5664H174.463L175.361 37.3498Z" fill="#F6A6A9"/>
<path d="M167.917 206.714H158.828L153.56 158.121H167.606L167.917 206.714Z" fill="#F6A6A9"/>
<path d="M149.978 214.524C149.024 214.524 148.173 214.5 147.53 214.44C145.114 214.22 142.814 212.438 141.656 211.395C141.137 210.927 140.969 210.18 141.24 209.536C141.436 209.073 141.824 208.729 142.303 208.593L148.68 206.77L159.008 199.796L159.124 200.004C159.168 200.08 160.182 201.91 160.521 203.145C160.649 203.617 160.617 204.009 160.422 204.308C160.286 204.52 160.098 204.64 159.942 204.708C160.13 204.904 160.717 205.3 162.518 205.587C165.154 206.007 165.705 203.273 165.729 203.157L165.745 203.065L165.825 203.013C167.079 202.206 167.85 201.838 168.117 201.914C168.285 201.962 168.56 202.046 169.307 209.488C169.383 209.72 169.906 211.435 169.551 213.069C169.163 214.852 161.388 214.236 159.83 214.097C159.787 214.101 153.964 214.516 149.974 214.516V214.524H149.978Z" fill="black"/>
<path d="M188.444 206.714H179.359L174.087 158.121H188.133L188.444 206.714Z" fill="#F6A6A9"/>
<path d="M170.509 214.524C169.555 214.524 168.704 214.5 168.061 214.44C165.645 214.22 163.345 212.438 162.187 211.395C161.667 210.927 161.5 210.18 161.771 209.536C161.967 209.073 162.354 208.729 162.834 208.593L169.211 206.77L179.539 199.796L179.654 200.004C179.698 200.08 180.713 201.91 181.052 203.145C181.18 203.617 181.148 204.009 180.952 204.308C180.817 204.52 180.629 204.64 180.473 204.708C180.661 204.904 181.248 205.3 183.049 205.587C185.685 206.007 186.236 203.273 186.26 203.157L186.276 203.065L186.356 203.013C187.61 202.206 188.38 201.838 188.648 201.914C188.816 201.962 189.091 202.046 189.838 209.488C189.914 209.72 190.437 211.435 190.082 213.069C189.694 214.852 181.919 214.236 180.361 214.097C180.317 214.101 174.495 214.516 170.505 214.516V214.524H170.509Z" fill="black"/>
<path d="M191.06 87.362H146.907L162.778 35.0876H180.381L191.06 87.362Z" fill="white"/>
<path d="M145.705 116.694C145.178 119.896 143.046 122.194 140.941 121.822C138.836 121.45 137.554 118.557 138.082 115.355C138.273 114.072 138.78 112.861 139.559 111.818L141.963 98.2808L148.509 99.6517L145.442 112.849C145.845 114.096 145.937 115.415 145.709 116.694L145.705 116.694Z" fill="#F6A6A9"/>
<path d="M165.557 35.0956C165.557 35.0956 154.591 34.8078 153.437 37.6935C152.283 40.5832 138.72 109.32 138.72 109.32H147.666L165.557 35.0956Z" fill="white"/>
<path d="M167.885 29.8673C173.225 29.8673 177.554 25.5351 177.554 20.1911C177.554 14.847 173.225 10.5148 167.885 10.5148C162.546 10.5148 158.217 14.847 158.217 20.1911C158.217 25.5351 162.546 29.8673 167.885 29.8673Z" fill="#F6A6A9"/>
<path d="M169.403 8.32455C169.403 8.32455 156.991 26.8018 159.08 38.3286L151.859 33.8002C151.859 33.8002 156.943 10.4668 164.519 8.65629L169.403 8.32056L169.403 8.32455Z" fill="black"/>
<path d="M181.883 87.3616H152.91L137.055 152.482C136.764 155.231 138.505 157.797 141.177 158.513C149.875 160.843 170.745 164.148 202.338 154.948C205.377 154.064 207.102 150.855 206.148 147.833L181.883 87.3656V87.3616Z" fill="black"/>
<path d="M142.806 44.36L142.606 44.1601L142.407 44.36C132.69 34.6437 116.944 34.6557 107.235 44.3799C97.5269 54.1082 97.3312 70.0635 107.048 79.7797L142.63 115.355L178.189 79.7358C187.897 70.0075 187.694 54.0522 177.981 44.336C168.265 34.6197 152.518 34.6317 142.81 44.356C142.81 44.356 142.806 44.36 142.806 44.36Z" fill="#E4E333"/>
<path d="M169.083 39.9793L177.111 35.8586C180.781 34.4997 184.874 34.9553 188.157 37.0936C198.141 43.5924 217.821 57.921 209.363 65.0034C198.217 74.3399 183.149 57.7811 183.149 57.7811L169.083 39.9793Z" fill="white"/>
<path d="M168.908 47.0217C166.116 45.375 164.747 42.5532 165.853 40.7187C166.959 38.8882 170.118 38.7403 172.913 40.387C174.04 41.0305 174.986 41.9417 175.673 43.0448L187.414 50.1832L183.772 55.7947L172.582 48.1608C171.272 48.0848 170.01 47.6931 168.904 47.0177H168.908L168.908 47.0217Z" fill="#F6A6A9"/>
<path d="M176.887 53.4924L180.226 45.5107L196.539 50.9144L189.243 63.0688L176.887 53.4924Z" fill="white"/>
<path d="M2 213.855C2 214.271 2.66955 214.605 3.50333 214.605H330.497C331.331 214.605 332 214.271 332 213.855C332 213.44 331.331 213.105 330.497 213.105H3.50333C2.66955 213.105 2 213.44 2 213.855Z" fill="black"/>
</svg>
