<svg width="136" height="40" viewBox="0 0 136 40" fill="none" xmlns="http://www.w3.org/2000/svg">
<path fill-rule="evenodd" clip-rule="evenodd" d="M21.5 20.2609L7.06268 14.8163C6.574 14.6323 6.35955 14.0553 6.59721 13.5659L9.383 7.82684C9.84495 6.87499 11.1057 6.70905 11.7265 7.51839L21.5 20.2609ZM21.4999 20.4063L7.13493 25.8245C6.6091 26.0228 6.37781 26.6441 6.6337 27.1711L9.38521 32.8403C9.84707 33.7922 11.1075 33.9581 11.7283 33.1488L21.4999 20.4063Z" fill="black"/>
<path fill-rule="evenodd" clip-rule="evenodd" d="M36.5 20.2973L22.0625 14.8379C21.5746 14.6532 21.3594 14.0747 21.5971 13.5839L24.3828 7.82911C24.8454 6.87464 26.1061 6.70825 26.7262 7.51981L36.5 20.2973ZM36.5 20.3698L22.0625 25.8292C21.5746 26.0139 21.3594 26.5924 21.5971 27.0832L24.3828 32.8381C24.8454 33.7925 26.1061 33.9589 26.7262 33.1474L36.5 20.3698Z" fill="black"/>
<path d="M135.5 15.6978V27.7427H132.816V26.1864C132.35 26.7578 131.771 27.1863 131.079 27.4721C130.402 27.7578 129.65 27.9006 128.823 27.9006C127.65 27.9006 126.598 27.645 125.666 27.1337C124.748 26.6224 124.026 25.9007 123.5 24.9683C122.989 24.036 122.733 22.9533 122.733 21.7203C122.733 20.4872 122.989 19.4121 123.5 18.4948C124.026 17.5625 124.748 16.8407 125.666 16.3294C126.598 15.8181 127.65 15.5625 128.823 15.5625C129.605 15.5625 130.32 15.6978 130.966 15.9685C131.628 16.2392 132.199 16.6377 132.68 17.164V15.6978H135.5ZM129.139 25.4871C130.177 25.4871 131.034 25.1413 131.711 24.4496C132.387 23.7578 132.726 22.8481 132.726 21.7203C132.726 20.5925 132.387 19.6827 131.711 18.991C131.034 18.2993 130.177 17.9534 129.139 17.9534C128.102 17.9534 127.244 18.2993 126.568 18.991C125.906 19.6827 125.575 20.5925 125.575 21.7203C125.575 22.8481 125.906 23.7578 126.568 24.4496C127.244 25.1413 128.102 25.4871 129.139 25.4871Z" fill="black"/>
<path d="M118.219 17.4572C119.031 16.1941 120.459 15.5625 122.504 15.5625V18.2467C122.264 18.2015 122.046 18.179 121.85 18.179C120.753 18.179 119.895 18.5023 119.279 19.1489C118.662 19.7805 118.354 20.6977 118.354 21.9007V27.7427H115.535V15.6978H118.219V17.4572Z" fill="black"/>
<path d="M107.47 27.9006C106.252 27.9006 105.155 27.6375 104.177 27.1112C103.2 26.5849 102.433 25.8555 101.877 24.9232C101.335 23.9759 101.065 22.9082 101.065 21.7203C101.065 20.5323 101.335 19.4722 101.877 18.5399C102.433 17.6076 103.2 16.8783 104.177 16.352C105.155 15.8257 106.252 15.5625 107.47 15.5625C108.704 15.5625 109.809 15.8257 110.786 16.352C111.764 16.8783 112.523 17.6076 113.064 18.5399C113.621 19.4722 113.899 20.5323 113.899 21.7203C113.899 22.9082 113.621 23.9759 113.064 24.9232C112.523 25.8555 111.764 26.5849 110.786 27.1112C109.809 27.6375 108.704 27.9006 107.47 27.9006ZM107.47 25.4871C108.508 25.4871 109.365 25.1413 110.042 24.4496C110.719 23.7578 111.057 22.8481 111.057 21.7203C111.057 20.5925 110.719 19.6827 110.042 18.991C109.365 18.2993 108.508 17.9534 107.47 17.9534C106.433 17.9534 105.576 18.2993 104.899 18.991C104.237 19.6827 103.907 20.5925 103.907 21.7203C103.907 22.8481 104.237 23.7578 104.899 24.4496C105.576 25.1413 106.433 25.4871 107.47 25.4871Z" fill="black"/>
<path d="M94.3309 15.5625C95.5038 15.5625 96.5489 15.8181 97.4661 16.3294C98.3985 16.8407 99.1278 17.5625 99.6541 18.4948C100.18 19.4271 100.444 20.5023 100.444 21.7203C100.444 22.9383 100.18 24.021 99.6541 24.9683C99.1278 25.9007 98.3985 26.6224 97.4661 27.1337C96.5489 27.645 95.5038 27.9006 94.3309 27.9006C92.7068 27.9006 91.4211 27.3593 90.4738 26.2766V32.1186H87.6543V15.6978H90.3385V17.2768C90.8046 16.7053 91.376 16.2768 92.0527 15.9911C92.7444 15.7054 93.5038 15.5625 94.3309 15.5625ZM94.0151 25.4871C95.0527 25.4871 95.9023 25.1413 96.5639 24.4496C97.2406 23.7578 97.5789 22.8481 97.5789 21.7203C97.5789 20.5925 97.2406 19.6827 96.5639 18.991C95.9023 18.2993 95.0527 17.9534 94.0151 17.9534C93.3384 17.9534 92.7294 18.1113 92.188 18.4271C91.6467 18.7279 91.2181 19.1639 90.9024 19.7354C90.5866 20.3068 90.4287 20.9684 90.4287 21.7203C90.4287 22.4721 90.5866 23.1338 90.9024 23.7052C91.2181 24.2766 91.6467 24.7202 92.188 25.036C92.7294 25.3368 93.3384 25.4871 94.0151 25.4871Z" fill="black"/>
<path d="M80.1718 15.5625C81.6906 15.5625 82.8936 16.0061 83.7808 16.8933C84.668 17.7655 85.1116 19.0812 85.1116 20.8406V27.7427H82.2921V21.2015C82.2921 20.1489 82.059 19.3594 81.5929 18.8331C81.1267 18.2918 80.4576 18.0211 79.5854 18.0211C78.638 18.0211 77.8787 18.3369 77.3072 18.9685C76.7358 19.585 76.4501 20.4722 76.4501 21.6301V27.7427H73.6306V21.2015C73.6306 20.1489 73.3975 19.3594 72.9314 18.8331C72.4652 18.2918 71.7961 18.0211 70.9239 18.0211C69.9615 18.0211 69.1946 18.3294 68.6232 18.9459C68.0668 19.5624 67.7886 20.4571 67.7886 21.6301V27.7427H64.9691V15.6978H67.6533V17.2316C68.1044 16.6903 68.6683 16.2768 69.345 15.9911C70.0217 15.7054 70.7735 15.5625 71.6006 15.5625C72.5028 15.5625 73.2998 15.7354 73.9915 16.0813C74.6983 16.4121 75.2546 16.9083 75.6606 17.57C76.1569 16.9384 76.796 16.4497 77.5779 16.1038C78.3598 15.7429 79.2245 15.5625 80.1718 15.5625Z" fill="black"/>
<path d="M57.7494 25.5097C59.0576 25.5097 60.1478 25.0736 61.02 24.2014L62.5087 25.9382C61.9824 26.5849 61.3057 27.0736 60.4787 27.4044C59.6516 27.7352 58.7193 27.9006 57.6817 27.9006C56.3584 27.9006 55.193 27.6375 54.1855 27.1112C53.178 26.5849 52.3961 25.8555 51.8397 24.9232C51.2984 23.9759 51.0277 22.9082 51.0277 21.7203C51.0277 20.5474 51.2909 19.4948 51.8172 18.5624C52.3585 17.6151 53.0953 16.8783 54.0277 16.352C54.975 15.8257 56.0427 15.5625 57.2306 15.5625C58.3584 15.5625 59.3809 15.8106 60.2982 16.3068C61.2305 16.788 61.9674 17.4873 62.5087 18.4046C63.05 19.3068 63.3207 20.3669 63.3207 21.5849L54.0953 23.3894C54.381 24.0811 54.8397 24.6074 55.4712 24.9683C56.1028 25.3292 56.8622 25.5097 57.7494 25.5097ZM57.2306 17.8181C56.193 17.8181 55.3509 18.1564 54.7043 18.8331C54.0728 19.5098 53.757 20.4196 53.757 21.5624V21.5849L60.5689 20.2767C60.3734 19.5399 59.9749 18.9459 59.3734 18.4948C58.787 18.0437 58.0727 17.8181 57.2306 17.8181Z" fill="black"/>
<path d="M51.1466 27.0887C50.8157 27.3594 50.4097 27.5624 49.9285 27.6978C49.4624 27.8331 48.9662 27.9008 48.4399 27.9008C47.1166 27.9008 46.094 27.5549 45.3722 26.8632C44.6504 26.1715 44.2896 25.164 44.2896 23.8407V18.0438H42V15.7882H44.2896L44.2896 13.0364H47.1091V15.7882H50.3346V18.0438H47.1091V23.773C47.1091 24.3595 47.2519 24.8106 47.5376 25.1264C47.8384 25.4271 48.2519 25.5775 48.7782 25.5775C49.4098 25.5775 49.9361 25.4121 50.3571 25.0813L51.1466 27.0887Z" fill="black"/>
</svg>
